<svg id="图层_1" data-name="图层 1" xmlns="http://www.w3.org/2000/svg" viewBox="0 0 210.51 245.57"><defs><style>.cls-1{fill:none;stroke:#231815;stroke-linecap:round;stroke-miterlimit:10;}</style></defs><polygon class="cls-1" points="87.72 9.02 90.23 83.07 162.46 68.9 161.32 0.56 87.72 9.02"/><polygon class="cls-1" points="46.57 7.19 87.72 9.02 90.23 83.07 48.86 63.87 46.57 7.19"/><polygon class="cls-1" points="102.8 1.7 161.32 0.56 87.72 9.02 46.57 7.19 102.8 1.7"/><polygon class="cls-1" points="96.17 16.79 98.23 73.25 154.23 62.05 153.09 9.02 96.17 16.79"/><line class="cls-1" x1="101.89" y1="38.96" x2="113.77" y2="36.9"/><line class="cls-1" x1="133.89" y1="35.07" x2="143.72" y2="33.25"/><line class="cls-1" x1="116.06" y1="52.67" x2="135.04" y2="48.33"/><path class="cls-1" d="M222.17,140.11c-1.07,4.85-2.61,12.39-3.88,21.72-2.95,21.53-4.56,34.44,2.51,40.68,3,2.68,4,.93,13.71,5,10.31,4.36,15.76,6.67,18.75,12.12,4.24,7.73,2.89,20.64-2.29,26.74a9.65,9.65,0,0,0-2.51,4.8c-.51,3.09.7,7.32,4.11,9.14,1.77,1,4.82,1.62,6.17.23,1.91-2-.25-7.36-3-10.51a13.78,13.78,0,0,0-2.51-2.29" transform="translate(-128.74 -56.35)"/><path class="cls-1" d="M220.11,204.57a29.2,29.2,0,0,0,3.43,7.77c5.24,8.25,10.7,7.22,12.57,12.35,3,8.27-7,22.48-10.74,26.51a7.88,7.88,0,0,0-1.83,3c-1.08,3.31.2,7.67,3.2,10.29,2.42,2.11,5.73,3.31,6.4,2.51.5-.59-.95-1.71-1.14-4.23-.21-2.71,1.3-3.71,1-5.48-.2-1.31-1.36-3.1-6.12-4.8" transform="translate(-128.74 -56.35)"/><path class="cls-1" d="M218.57,151.2a36.41,36.41,0,0,0-15.26,14.74c-1.82,3.37-6.58,12.12-3.6,19.2,3.54,8.39,17.4,13.17,33.43,9.09" transform="translate(-128.74 -56.35)"/><path class="cls-1" d="M233.14,195.43a8.72,8.72,0,0,0,8.06,6.68c4.47.19,7.5-3.22,8.57-6,1.3-3.37.24-7.24-.68-7.37-.76-.1-1,2.4-3.09,3.26-1.49.61-3.58.26-4.29-.86s.34-2-.34-3.08-2.44-1.18-3.43-1c-2,.29-3.69,2.05-4.45,4.46" transform="translate(-128.74 -56.35)"/><path class="cls-1" d="M270.51,176.06a10.07,10.07,0,0,1-2.4-6.35c0-3.94,2.68-8.4,7-9.25,4.07-.8,7.29,2,7.72,2.4" transform="translate(-128.74 -56.35)"/><path class="cls-1" d="M220.63,155.83a30.13,30.13,0,0,0,24,21.6c15.89,2.53,26.61-9.37,27.26-10.12" transform="translate(-128.74 -56.35)"/><path class="cls-1" d="M310.46,146.91c-3.92,5.23-9.86,13.23-17,23.15-13.57,18.91-18.73,27.1-21.26,26.05-1.86-.77-1.13-6.17.34-17,1-7.62,2.29-10.63,4.8-12.68a12,12,0,0,1,5.49-2.4c4.65-1,11.71-3.35,22-9.58" transform="translate(-128.74 -56.35)"/><path class="cls-1" d="M312,145.71a36.88,36.88,0,0,0,8.23-1.37c11.66-3.32,18.2-11.47,18.51-11.14s-5.28,8.55-15.77,14.57c-5,2.87-7.68,3.27-13.2,7a57.57,57.57,0,0,0-9.77,8.4" transform="translate(-128.74 -56.35)"/><path class="cls-1" d="M280.71,170.14a36.73,36.73,0,0,0-3.25,16.37" transform="translate(-128.74 -56.35)"/><path class="cls-1" d="M284.49,168.51q-.8,3.51-1.46,7.38c-.37,2.18-.69,4.3-.94,6.34" transform="translate(-128.74 -56.35)"/><path class="cls-1" d="M289.54,165.43a28.17,28.17,0,0,0-1.37,6.08,28.59,28.59,0,0,0-.17,3.09" transform="translate(-128.74 -56.35)"/><path class="cls-1" d="M293.49,163.29c.05,1.34.11,2.68.17,4" transform="translate(-128.74 -56.35)"/><polygon class="cls-1" points="32.92 185.36 171.26 138.73 171.26 190.5 35.66 244.67 32.92 185.36"/><line class="cls-1" x1="153.35" y1="130.16" x2="171.26" y2="138.73"/><polygon class="cls-1" points="122.06 107.36 127.03 102.27 126.46 109.07 117 135.73 113.23 135.1 112.63 131.7 122.06 107.36"/><path class="cls-1" d="M250.8,163.71a3.05,3.05,0,0,0,1.49,1.83,3.22,3.22,0,0,0,2.91-.11" transform="translate(-128.74 -56.35)"/><line class="cls-1" x1="122.69" y1="109.5" x2="113.37" y2="132.9"/><line class="cls-1" x1="124.86" y1="109.07" x2="114.95" y2="135.57"/><path class="cls-1" d="M232.2,195.09c-1,.77-102.94,29.4-102.94,29.4l2.48,57.34L164.4,301l-2.74-59.32-32.4-17.22" transform="translate(-128.74 -56.35)"/><line class="cls-1" x1="121.64" y1="132.9" x2="142.8" y2="126.79"/></svg>